<svg width="158" height="24" viewBox="0 0 158 24" fill="none" xmlns="http://www.w3.org/2000/svg">
<circle cx="12" cy="12" r="12" fill="#003366"/>
<circle cx="24" cy="12" r="12" fill="#FCD96B"/>
<path d="M52.058 2.748V21H47.612V2.748H52.058ZM54.526 11.848C54.526 10.0453 54.916 8.442 55.696 7.038C56.476 5.61667 57.5593 4.516 58.946 3.736C60.35 2.93867 61.936 2.54 63.704 2.54C65.8706 2.54 67.7253 3.112 69.268 4.256C70.8106 5.4 71.842 6.96 72.362 8.936H67.474C67.11 8.17333 66.59 7.59267 65.914 7.194C65.2553 6.79533 64.5013 6.596 63.652 6.596C62.2826 6.596 61.1733 7.07267 60.324 8.026C59.4746 8.97933 59.05 10.2533 59.05 11.848C59.05 13.4427 59.4746 14.7167 60.324 15.67C61.1733 16.6233 62.2826 17.1 63.652 17.1C64.5013 17.1 65.2553 16.9007 65.914 16.502C66.59 16.1033 67.11 15.5227 67.474 14.76H72.362C71.842 16.736 70.8106 18.296 69.268 19.44C67.7253 20.5667 65.8706 21.13 63.704 21.13C61.936 21.13 60.35 20.74 58.946 19.96C57.5593 19.1627 56.476 18.062 55.696 16.658C54.916 15.254 54.526 13.6507 54.526 11.848Z" fill="#003366"/>
<path d="M74.3307 11.848C74.3307 10.0453 74.7207 8.442 75.5007 7.038C76.2807 5.61667 77.364 4.516 78.7507 3.736C80.1547 2.93867 81.7407 2.54 83.5087 2.54C85.6753 2.54 87.53 3.112 89.0727 4.256C90.6153 5.4 91.6467 6.96 92.1667 8.936H87.2787C86.9147 8.17333 86.3947 7.59267 85.7187 7.194C85.06 6.79533 84.306 6.596 83.4567 6.596C82.0873 6.596 80.978 7.07267 80.1287 8.026C79.2793 8.97933 78.8547 10.2533 78.8547 11.848C78.8547 13.4427 79.2793 14.7167 80.1287 15.67C80.978 16.6233 82.0873 17.1 83.4567 17.1C84.306 17.1 85.06 16.9007 85.7187 16.502C86.3947 16.1033 86.9147 15.5227 87.2787 14.76H92.1667C91.6467 16.736 90.6153 18.296 89.0727 19.44C87.53 20.5667 85.6753 21.13 83.5087 21.13C81.7407 21.13 80.1547 20.74 78.7507 19.96C77.364 19.1627 76.2807 18.062 75.5007 16.658C74.7207 15.254 74.3307 13.6507 74.3307 11.848ZM103.521 21.182C101.805 21.182 100.228 20.7833 98.7893 19.986C97.368 19.1887 96.2327 18.0793 95.3833 16.658C94.5513 15.2193 94.1353 13.6073 94.1353 11.822C94.1353 10.0367 94.5513 8.43333 95.3833 7.012C96.2327 5.59067 97.368 4.48133 98.7893 3.684C100.228 2.88667 101.805 2.488 103.521 2.488C105.237 2.488 106.806 2.88667 108.227 3.684C109.666 4.48133 110.793 5.59067 111.607 7.012C112.439 8.43333 112.855 10.0367 112.855 11.822C112.855 13.6073 112.439 15.2193 111.607 16.658C110.775 18.0793 109.649 19.1887 108.227 19.986C106.806 20.7833 105.237 21.182 103.521 21.182ZM103.521 17.126C104.977 17.126 106.139 16.6407 107.005 15.67C107.889 14.6993 108.331 13.4167 108.331 11.822C108.331 10.21 107.889 8.92733 107.005 7.974C106.139 7.00333 104.977 6.518 103.521 6.518C102.048 6.518 100.869 6.99467 99.9853 7.948C99.1187 8.90133 98.6853 10.1927 98.6853 11.822C98.6853 13.434 99.1187 14.7253 99.9853 15.696C100.869 16.6493 102.048 17.126 103.521 17.126ZM114.575 11.848C114.575 10.0453 114.965 8.442 115.745 7.038C116.525 5.61667 117.608 4.516 118.995 3.736C120.399 2.93867 121.985 2.54 123.753 2.54C125.919 2.54 127.774 3.112 129.317 4.256C130.859 5.4 131.891 6.96 132.411 8.936H127.523C127.159 8.17333 126.639 7.59267 125.963 7.194C125.304 6.79533 124.55 6.596 123.701 6.596C122.331 6.596 121.222 7.07267 120.373 8.026C119.523 8.97933 119.099 10.2533 119.099 11.848C119.099 13.4427 119.523 14.7167 120.373 15.67C121.222 16.6233 122.331 17.1 123.701 17.1C124.55 17.1 125.304 16.9007 125.963 16.502C126.639 16.1033 127.159 15.5227 127.523 14.76H132.411C131.891 16.736 130.859 18.296 129.317 19.44C127.774 20.5667 125.919 21.13 123.753 21.13C121.985 21.13 120.399 20.74 118.995 19.96C117.608 19.1627 116.525 18.062 115.745 16.658C114.965 15.254 114.575 13.6507 114.575 11.848Z" fill="#111111"/>
</svg>
