<svg width="158" height="25" viewBox="0 0 158 25" fill="none" xmlns="http://www.w3.org/2000/svg">
<circle cx="12" cy="12.6831" r="12" fill="white"/>
<circle cx="24" cy="12.6831" r="12" fill="#FCD96B"/>
<path d="M52.058 3.4311V21.6831H47.612V3.4311H52.058ZM54.526 12.5311C54.526 10.7284 54.916 9.1251 55.696 7.72111C56.476 6.29977 57.5593 5.1991 58.946 4.4191C60.35 3.62177 61.936 3.2231 63.704 3.2231C65.8706 3.2231 67.7253 3.7951 69.268 4.9391C70.8106 6.0831 71.842 7.64311 72.362 9.61911H67.474C67.11 8.85644 66.59 8.27577 65.914 7.8771C65.2553 7.47844 64.5013 7.2791 63.652 7.2791C62.2826 7.2791 61.1733 7.75577 60.324 8.70911C59.4746 9.66244 59.05 10.9364 59.05 12.5311C59.05 14.1258 59.4746 15.3998 60.324 16.3531C61.1733 17.3064 62.2826 17.7831 63.652 17.7831C64.5013 17.7831 65.2553 17.5838 65.914 17.1851C66.59 16.7864 67.11 16.2058 67.474 15.4431H72.362C71.842 17.4191 70.8106 18.9791 69.268 20.1231C67.7253 21.2498 65.8706 21.8131 63.704 21.8131C61.936 21.8131 60.35 21.4231 58.946 20.6431C57.5593 19.8458 56.476 18.7451 55.696 17.3411C54.916 15.9371 54.526 14.3338 54.526 12.5311ZM74.3307 12.5311C74.3307 10.7284 74.7207 9.1251 75.5007 7.72111C76.2807 6.29977 77.364 5.1991 78.7507 4.4191C80.1547 3.62177 81.7407 3.2231 83.5087 3.2231C85.6753 3.2231 87.53 3.7951 89.0727 4.9391C90.6153 6.0831 91.6467 7.64311 92.1667 9.61911H87.2787C86.9147 8.85644 86.3947 8.27577 85.7187 7.8771C85.06 7.47844 84.306 7.2791 83.4567 7.2791C82.0873 7.2791 80.978 7.75577 80.1287 8.70911C79.2793 9.66244 78.8547 10.9364 78.8547 12.5311C78.8547 14.1258 79.2793 15.3998 80.1287 16.3531C80.978 17.3064 82.0873 17.7831 83.4567 17.7831C84.306 17.7831 85.06 17.5838 85.7187 17.1851C86.3947 16.7864 86.9147 16.2058 87.2787 15.4431H92.1667C91.6467 17.4191 90.6153 18.9791 89.0727 20.1231C87.53 21.2498 85.6753 21.8131 83.5087 21.8131C81.7407 21.8131 80.1547 21.4231 78.7507 20.6431C77.364 19.8458 76.2807 18.7451 75.5007 17.3411C74.7207 15.9371 74.3307 14.3338 74.3307 12.5311ZM103.521 21.8651C101.805 21.8651 100.228 21.4664 98.7893 20.6691C97.368 19.8718 96.2327 18.7624 95.3833 17.3411C94.5513 15.9024 94.1353 14.2904 94.1353 12.5051C94.1353 10.7198 94.5513 9.11644 95.3833 7.6951C96.2327 6.27377 97.368 5.16444 98.7893 4.36711C100.228 3.56977 101.805 3.17111 103.521 3.17111C105.237 3.17111 106.806 3.56977 108.227 4.36711C109.666 5.16444 110.793 6.27377 111.607 7.6951C112.439 9.11644 112.855 10.7198 112.855 12.5051C112.855 14.2904 112.439 15.9024 111.607 17.3411C110.775 18.7624 109.649 19.8718 108.227 20.6691C106.806 21.4664 105.237 21.8651 103.521 21.8651ZM103.521 17.8091C104.977 17.8091 106.139 17.3238 107.005 16.3531C107.889 15.3824 108.331 14.0998 108.331 12.5051C108.331 10.8931 107.889 9.61044 107.005 8.6571C106.139 7.68644 104.977 7.2011 103.521 7.2011C102.048 7.2011 100.869 7.67777 99.9853 8.6311C99.1187 9.58444 98.6853 10.8758 98.6853 12.5051C98.6853 14.1171 99.1187 15.4084 99.9853 16.3791C100.869 17.3324 102.048 17.8091 103.521 17.8091ZM114.575 12.5311C114.575 10.7284 114.965 9.1251 115.745 7.72111C116.525 6.29977 117.608 5.1991 118.995 4.4191C120.399 3.62177 121.985 3.2231 123.753 3.2231C125.919 3.2231 127.774 3.7951 129.317 4.9391C130.859 6.0831 131.891 7.64311 132.411 9.61911H127.523C127.159 8.85644 126.639 8.27577 125.963 7.8771C125.304 7.47844 124.55 7.2791 123.701 7.2791C122.331 7.2791 121.222 7.75577 120.373 8.70911C119.523 9.66244 119.099 10.9364 119.099 12.5311C119.099 14.1258 119.523 15.3998 120.373 16.3531C121.222 17.3064 122.331 17.7831 123.701 17.7831C124.55 17.7831 125.304 17.5838 125.963 17.1851C126.639 16.7864 127.159 16.2058 127.523 15.4431H132.411C131.891 17.4191 130.859 18.9791 129.317 20.1231C127.774 21.2498 125.919 21.8131 123.753 21.8131C121.985 21.8131 120.399 21.4231 118.995 20.6431C117.608 19.8458 116.525 18.7451 115.745 17.3411C114.965 15.9371 114.575 14.3338 114.575 12.5311Z" fill="white"/>
</svg>
