<svg width="51" height="51" viewBox="0 0 51 51" fill="none" xmlns="http://www.w3.org/2000/svg">
<rect x="0.5" y="0.734863" width="50" height="50" rx="25" fill="#003366"/>
<path d="M37.9821 33.4048C37.6104 32.9678 37.1417 32.6289 36.6204 32.4131C37.0672 31.9458 37.3419 31.3161 37.3419 30.6235C37.3419 29.1859 36.1597 28.0162 34.7068 28.0162C33.2538 28.0162 32.072 29.1859 32.072 30.6235C32.072 31.3161 32.3467 31.9458 32.7934 32.4131C32.2721 32.6289 31.8034 32.9678 31.4317 33.4048C30.8831 34.0496 30.5809 34.8686 30.5809 35.711V37.3141C30.5809 37.6288 30.837 37.8849 31.1517 37.8849H38.2621C38.5768 37.8849 38.8329 37.6288 38.8329 37.3141V35.711C38.8329 34.8686 38.5307 34.0496 37.9821 33.4048ZM34.7068 28.7713C35.7435 28.7713 36.5868 29.6023 36.5868 30.6238C36.5868 31.6452 35.7432 32.4762 34.7068 32.4762C33.67 32.4762 32.8268 31.6452 32.8268 30.6238C32.8268 29.6023 33.6703 28.7713 34.7068 28.7713ZM38.0781 37.13H31.3358V35.711C31.3358 34.3815 32.2588 33.2455 33.5474 32.9642C33.8975 33.1346 34.2909 33.2308 34.7068 33.2308C35.1227 33.2308 35.5161 33.1346 35.8661 32.9642C37.1548 33.2455 38.0778 34.3818 38.0778 35.711L38.0781 37.13ZM27.9133 32.4131C28.3601 31.9458 28.6348 31.3161 28.6348 30.6235C28.6348 29.1859 27.4526 28.0162 26 28.0162C24.547 28.0162 23.3649 29.1859 23.3649 30.6235C23.3649 31.3161 23.6396 31.9458 24.0864 32.4131C23.5651 32.6289 23.0963 32.9678 22.7246 33.4048C22.1761 34.0496 21.8739 34.8686 21.8739 35.711V37.3141C21.8739 37.6288 22.1299 37.8849 22.4446 37.8849H29.555C29.8698 37.8849 30.1258 37.6288 30.1258 37.3141V35.711C30.1258 34.8686 29.8236 34.0496 29.2751 33.4048C28.9034 32.9681 28.4343 32.6289 27.9133 32.4131ZM25.9997 28.7713C27.0364 28.7713 27.8797 29.6023 27.8797 30.6238C27.8797 31.6452 27.0362 32.4762 25.9997 32.4762C24.963 32.4762 24.1197 31.6452 24.1197 30.6238C24.1197 29.6023 24.963 28.7713 25.9997 28.7713ZM29.3707 37.13H22.6284V35.711C22.6284 34.3815 23.5514 33.2455 24.8401 32.9642C25.1901 33.1346 25.5835 33.2308 25.9994 33.2308C26.4153 33.2308 26.8087 33.1346 27.1588 32.9642C28.4474 33.2455 29.3704 34.3818 29.3704 35.711L29.3707 37.13ZM19.206 32.4131C19.6527 31.9458 19.9274 31.3161 19.9274 30.6235C19.9274 29.1859 18.7453 28.0162 17.2923 28.0162C15.8394 28.0162 14.6575 29.1859 14.6575 30.6235C14.6575 31.3161 14.9322 31.9458 15.379 32.4131C14.8577 32.6289 14.389 32.9678 14.0172 33.4048C13.4687 34.0496 13.1665 34.8686 13.1665 35.711V37.3141C13.1665 37.6288 13.4226 37.8849 13.7373 37.8849H20.848C21.1627 37.8849 21.4187 37.6288 21.4187 37.3141V35.711C21.4187 34.8686 21.1165 34.0496 20.568 33.4048C20.196 32.9681 19.7273 32.6289 19.206 32.4131ZM17.2926 28.7713C18.3294 28.7713 19.1726 29.6023 19.1726 30.6238C19.1726 31.6452 18.3291 32.4762 17.2926 32.4762C16.2559 32.4762 15.4126 31.6452 15.4126 30.6238C15.4124 29.6023 16.2559 28.7713 17.2926 28.7713ZM20.6636 37.13H13.9213V35.711C13.9213 34.3815 14.8444 33.2455 16.133 32.9642C16.483 33.1346 16.8764 33.2308 17.2923 33.2308C17.7083 33.2308 18.1017 33.1346 18.4517 32.9642C19.7403 33.2455 20.6634 34.3818 20.6634 35.711L20.6636 37.13ZM15.7504 16.9515L18.6068 18.1615V23.9596C18.6068 24.1083 18.6941 24.2432 18.8301 24.3041C20.6319 25.1109 22.9506 25.5554 25.3589 25.5554C27.7671 25.5554 30.0858 25.1112 31.8876 24.3041C32.0233 24.2432 32.1109 24.1083 32.1109 23.9596V18.1615L34.4427 17.1737V19.6803L33.3264 20.4393C33.223 20.5096 33.1613 20.6264 33.1613 20.7515V23.4606C33.1613 23.6032 33.2416 23.7336 33.3689 23.7975C33.4226 23.8245 33.4807 23.8378 33.5388 23.8378C33.6183 23.8378 33.6973 23.8128 33.7635 23.7636L34.8202 22.981L35.877 23.7636C35.9915 23.8484 36.1441 23.8615 36.2715 23.7972C36.3988 23.733 36.4792 23.6026 36.4792 23.4603V20.7512C36.4792 20.6261 36.4174 20.5094 36.314 20.439L35.1978 19.68V16.6574C35.1978 16.6476 35.1967 16.6382 35.1958 16.6287C35.1964 16.6204 35.1978 16.6123 35.1978 16.604C35.1978 16.4525 35.1071 16.3157 34.9676 16.2565L25.5062 12.2482C25.412 12.2082 25.3058 12.2082 25.2118 12.2482L15.7504 16.2565C15.6109 16.3157 15.5202 16.4525 15.5202 16.604C15.5202 16.7555 15.6109 16.8923 15.7504 16.9515ZM31.3561 23.7119C29.6818 24.415 27.5641 24.8003 25.3589 24.8003C23.1536 24.8003 21.0359 24.4147 19.3617 23.7119V18.4812L25.2115 20.9595C25.2585 20.9795 25.3085 20.9895 25.3589 20.9895C25.4089 20.9895 25.4589 20.9795 25.5062 20.9595L31.3561 18.4812V23.7119ZM35.7241 22.7113L35.0448 22.2083C34.9781 22.1589 34.8992 22.1341 34.8202 22.1341C34.7412 22.1341 34.6623 22.1589 34.5956 22.2083L33.9164 22.7113V20.9514L34.8202 20.3367L35.7241 20.9514V22.7113ZM25.3591 13.0058L32.9616 16.2264H27.1243C26.9158 16.2264 26.7467 16.3955 26.7467 16.604C26.7467 16.8125 26.9158 16.9815 27.1243 16.9815H32.9616L25.3591 20.2021L16.8656 16.604L25.3591 13.0058Z" fill="white"/>
</svg>
