<svg width="50" height="51" viewBox="0 0 50 51" fill="none" xmlns="http://www.w3.org/2000/svg">
<rect y="0.734863" width="50" height="50" rx="25" fill="#003366"/>
<path d="M32.8912 29.5382H32.8339V26.5542C32.8339 26.5542 32.8243 26.5209 32.8243 26.5067C32.8243 26.4734 32.8148 26.4449 32.8052 26.4116C32.7957 26.3831 32.7861 26.3546 32.7718 26.3308C32.7575 26.3023 32.7384 26.2786 32.7193 26.2548C32.7002 26.2311 32.6811 26.2121 32.6572 26.193C32.6334 26.174 32.6095 26.1598 32.5808 26.1408C32.5522 26.1265 32.5236 26.1123 32.4949 26.1028C32.4806 26.098 32.4663 26.0885 32.4472 26.0838C31.8695 25.9697 31.287 25.9174 30.7045 25.9127C29.5109 24.9671 27.7682 24.6868 27.1523 24.6155L26.6509 23.9312C27.5056 23.4228 28.1692 22.6293 28.513 21.6837C29.4249 21.5792 30.1363 20.8141 30.1363 19.8781C30.1363 19.132 29.6827 18.4953 29.0287 18.2102C29.1337 17.4879 29.0143 16.4046 28.5082 15.459C27.5963 13.7721 25.8632 13.3635 25.3572 13.2779C23.7578 13.0118 22.1155 13.6486 20.9885 14.941C20.683 14.9125 20.3774 14.9933 20.1196 15.1739C19.7567 15.4305 19.5561 15.8486 19.58 16.2857C19.6182 17.0413 19.7471 17.7017 19.8665 18.1769C19.1742 18.4383 18.6872 19.094 18.6872 19.8733C18.6872 20.8094 19.3986 21.5744 20.3105 21.6789C20.6543 22.6245 21.318 23.4133 22.1726 23.9265L21.6713 24.6107C21.0506 24.682 19.3079 24.9623 18.1191 25.9079C17.5366 25.9127 16.9541 25.9697 16.3764 26.079C16.3573 26.079 16.3477 26.0932 16.3286 26.098C16.2952 26.1075 16.2713 26.117 16.2427 26.136C16.214 26.1503 16.1902 26.1693 16.1663 26.1883C16.1424 26.2073 16.1233 26.2263 16.1042 26.25C16.0851 26.2738 16.066 26.2976 16.0517 26.3261C16.0374 26.3498 16.0278 26.3783 16.0183 26.4069C16.0087 26.4401 16.004 26.4686 15.9992 26.5019C15.9992 26.5161 15.9896 26.5304 15.9896 26.5494V29.5335H15.9323C15.1446 29.5335 14.5 30.175 14.5 30.959V32.0234C14.5 32.8074 15.1446 33.4489 15.9323 33.4489H15.9896V36.9273C15.9896 36.9273 15.9992 36.9558 15.9992 36.97V37.0175C15.9992 37.0365 16.0135 37.046 16.0183 37.0651C16.0278 37.0936 16.0374 37.1221 16.0517 37.1506C16.066 37.1791 16.0851 37.2029 16.1042 37.2266C16.1233 37.2504 16.1424 37.2694 16.1615 37.2884C16.1854 37.3074 16.214 37.3264 16.2427 37.3407C16.2666 37.3549 16.2952 37.3644 16.3191 37.3739C16.3525 37.3834 16.3812 37.3882 16.4146 37.3929C16.4337 37.3929 16.448 37.4024 16.4623 37.4024C16.4766 37.4024 16.491 37.3929 16.5101 37.3929H16.5578C17.6512 37.1791 18.7588 37.1791 19.8476 37.3929C21.0221 37.621 22.1584 38.1057 23.1419 38.7994C23.161 38.8137 23.1801 38.8184 23.1992 38.8279C23.2183 38.8374 23.2326 38.8469 23.2517 38.8517C23.3042 38.8707 23.3615 38.885 23.4188 38.885H25.405C25.4623 38.885 25.5148 38.8707 25.5721 38.8517C25.5912 38.8469 25.6055 38.8374 25.6246 38.8279C25.6437 38.8184 25.6628 38.8137 25.6819 38.7994C26.6607 38.1104 27.8018 37.6258 28.9762 37.3929C30.0648 37.1791 31.1725 37.1791 32.266 37.3929H32.3137C32.328 37.3929 32.3424 37.4024 32.3615 37.4024C32.3806 37.4024 32.3949 37.3929 32.4092 37.3929C32.4426 37.3929 32.4713 37.3834 32.5047 37.3739C32.5334 37.3644 32.562 37.3549 32.5859 37.3407C32.6145 37.3264 32.6384 37.3074 32.6623 37.2884C32.6861 37.2694 32.7052 37.2504 32.7243 37.2266C32.7434 37.2029 32.7578 37.1791 32.7768 37.1506C32.7912 37.1221 32.8055 37.0936 32.815 37.0651C32.8198 37.0508 32.8294 37.0365 32.8341 37.0175V36.97C32.8341 36.9558 32.8437 36.9415 32.8437 36.9273V33.4489H32.901C33.6888 33.4489 34.3333 32.8074 34.3333 32.0234V30.959C34.3333 30.175 33.6888 29.5335 32.901 29.5335L32.8912 29.5382ZM25.2664 27.5615H23.5523C22.4924 26.844 21.2844 26.3308 20.0334 26.0885C19.9522 26.0742 19.8711 26.0647 19.7947 26.0552C20.5968 25.7369 21.418 25.6086 21.7761 25.5658C22.1485 25.8652 23.1034 26.5066 24.4116 26.5066C25.7198 26.5066 26.6747 25.8652 27.0471 25.5658C27.4052 25.6086 28.2264 25.7321 29.0286 26.0552C28.9474 26.0695 28.8662 26.0742 28.7898 26.0885C27.5389 26.3308 26.3262 26.844 25.2709 27.5615H25.2664ZM28.7566 20.6382C28.7709 20.4956 28.7804 20.3578 28.7804 20.2106V19.1557C29.0239 19.3125 29.1815 19.5786 29.1815 19.8874C29.1815 20.1963 29.0096 20.4814 28.7566 20.6382ZM20.6734 15.9577C20.7163 15.9244 20.8357 15.8579 20.9933 15.9196C21.189 15.9957 21.4182 15.9387 21.5471 15.7676C22.459 14.5939 23.858 14.0047 25.1996 14.2233C25.6006 14.2898 26.9613 14.6082 27.668 15.9149C28.1597 16.832 28.1502 17.8203 28.069 18.21C23.7862 18.3715 22.1725 16.8748 22.1581 16.8605C22.0674 16.7702 21.9433 16.7227 21.8191 16.7227C21.7666 16.7227 21.7189 16.7322 21.6663 16.7465C21.2987 16.87 20.9693 17.2026 20.7019 17.559C20.6255 17.1836 20.5587 16.737 20.5348 16.2475C20.5253 16.0812 20.6303 15.9862 20.6733 15.9529L20.6734 15.9577ZM19.6421 19.8874C19.6421 19.5785 19.8044 19.3124 20.0431 19.1556V20.2105C20.0431 20.353 20.0527 20.4908 20.0622 20.6334C19.8092 20.4813 19.6373 20.2058 19.6373 19.8874L19.6421 19.8874ZM20.998 20.2105V18.918C21.2081 18.4856 21.5232 18.0057 21.7763 17.7776C22.44 18.2528 24.2781 19.2506 27.8256 19.1698V20.2105C27.8256 22.0826 26.293 23.608 24.4118 23.608C22.5306 23.608 20.998 22.0827 20.998 20.2105ZM24.4118 24.5583C24.8845 24.5583 25.3381 24.4823 25.763 24.3445L26.2309 24.9812C25.8633 25.2236 25.2187 25.5609 24.407 25.5609C23.5954 25.5609 22.9508 25.2283 22.5832 24.9812L23.0511 24.3445C23.476 24.4823 23.9296 24.5583 24.4022 24.5583H24.4118ZM15.455 32.0278V30.9634C15.455 30.7021 15.6699 30.4883 15.9325 30.4883H17.0211C17.5463 30.4883 17.976 30.9159 17.976 31.4386V31.5527C17.976 32.0754 17.5463 32.503 17.0211 32.503H15.9325C15.6699 32.503 15.455 32.2892 15.455 32.0278ZM16.9447 36.3802V33.4532H17.0211C18.0762 33.4532 18.9309 32.6026 18.9309 31.5525V31.4385C18.9309 30.3883 18.0762 29.5378 17.0211 29.5378H16.9447V26.9623C17.9139 26.8198 18.8879 26.8293 19.8523 27.0194C20.9505 27.2332 22.0104 27.6799 22.9413 28.2976V37.554C22.039 37.0408 21.0506 36.6654 20.0337 36.4659C19.0119 36.2663 17.9759 36.2473 16.9447 36.3851V36.3802ZM24.9276 37.9388H23.8963V28.5114H24.9276V37.9388ZM31.8793 36.3802C30.848 36.2424 29.812 36.2614 28.7903 36.461C27.7734 36.6606 26.785 37.0359 25.8827 37.5491V28.2927C26.8185 27.675 27.8784 27.2283 28.9716 27.0145C29.9313 26.8244 30.9101 26.8149 31.8793 26.9575V29.5329H31.8029C30.7478 29.5329 29.8931 30.3835 29.8931 31.4336V31.5476C29.8931 32.5977 30.7478 33.4483 31.8029 33.4483H31.8793V36.3802ZM33.3689 32.0278C33.3689 32.2892 33.1541 32.503 32.8915 32.503H31.8029C31.2777 32.503 30.848 32.0754 30.848 31.5527V31.4386C30.848 30.9159 31.2777 30.4883 31.8029 30.4883H32.8915C33.1541 30.4883 33.3689 30.7021 33.3689 30.9634V32.0278Z" fill="white"/>
</svg>
