<svg width="51" height="51" viewBox="0 0 51 51" fill="none" xmlns="http://www.w3.org/2000/svg">
<rect x="0.666504" y="0.734863" width="50" height="50" rx="25" fill="#003366"/>
<path fill-rule="evenodd" clip-rule="evenodd" d="M32.6443 38.1919H38.4649V36.558C38.4649 36.1175 38.3008 35.7197 38.0364 35.4338C37.7815 35.1582 37.432 34.9868 37.0502 34.9868H34.0591C33.6772 34.9868 33.3277 35.1579 33.0728 35.4338C32.8084 35.7197 32.6443 36.1175 32.6443 36.558V38.1919ZM26.1058 38.1919H31.9264V36.5577C31.9264 36.1172 31.7623 35.7194 31.4979 35.4335C31.243 35.1579 30.8935 34.9865 30.5117 34.9865H27.5206C27.1387 34.9865 26.7893 35.1576 26.5343 35.4335C26.2699 35.7194 26.1058 36.1169 26.1058 36.5577V38.1919ZM18.9537 34.9733C19.048 35.0752 19.1334 35.1865 19.2084 35.3057C19.2834 35.1865 19.3688 35.0752 19.463 34.9733C19.851 34.554 20.3886 34.2934 20.9821 34.2934H23.9732C24.5667 34.2934 25.1043 34.5537 25.4922 34.9733C25.5865 35.0752 25.6719 35.1865 25.7469 35.3057C25.8219 35.1865 25.9073 35.0752 26.0015 34.9733C26.3894 34.554 26.9271 34.2934 27.5206 34.2934H30.5117C31.1051 34.2934 31.6428 34.5537 32.0307 34.9733C32.125 35.0752 32.2103 35.1865 32.2854 35.3057C32.3604 35.1865 32.4458 35.0752 32.54 34.9733C32.9279 34.554 33.4656 34.2934 34.0591 34.2934H37.0502C37.6436 34.2934 38.1813 34.5537 38.5692 34.9733C38.9477 35.3826 39.1828 35.9438 39.1828 36.5577V38.5385C39.1828 38.7299 39.0221 38.8851 38.8239 38.8851H12.6699C12.4717 38.8851 12.311 38.7299 12.311 38.5385V36.5577C12.311 35.9435 12.5461 35.3826 12.9246 34.9733C13.3125 34.554 13.8501 34.2934 14.4436 34.2934H17.4344C18.0279 34.2934 18.5658 34.5537 18.9537 34.9733ZM19.5673 36.5577V38.1916H25.3879V36.5574C25.3879 36.1169 25.2239 35.7191 24.9595 35.4332C24.7045 35.1576 24.355 34.9862 23.9732 34.9862H20.9821C20.6003 34.9862 20.2508 35.1573 19.9958 35.4332C19.7314 35.7191 19.5673 36.1169 19.5673 36.5577ZM18.8495 38.1916V36.5577C18.8495 36.1172 18.6854 35.7194 18.421 35.4335C18.166 35.1579 17.8165 34.9865 17.4347 34.9865H14.4439C14.0621 34.9865 13.7126 35.1576 13.4576 35.4335C13.1932 35.7194 13.0292 36.1172 13.0292 36.5577V38.1916H18.8495ZM16.6827 31.6778C16.4924 31.494 16.2295 31.3804 15.9392 31.3804C15.6488 31.3804 15.3859 31.494 15.1956 31.6778C15.0053 31.8615 14.8876 32.1153 14.8876 32.3957C14.8876 32.676 15.0053 32.9298 15.1956 33.1135C15.3859 33.2973 15.6488 33.4109 15.9392 33.4109C16.2295 33.4109 16.4924 33.2973 16.6827 33.1135C16.873 32.9298 16.9907 32.676 16.9907 32.3957C16.9907 32.1153 16.873 31.8615 16.6827 31.6778ZM15.9392 30.6873C16.4277 30.6873 16.8702 30.8784 17.1904 31.1875C17.5106 31.4967 17.7086 31.9239 17.7086 32.3957C17.7086 32.8674 17.5103 33.2946 17.1904 33.6038C16.8702 33.913 16.4277 34.1041 15.9392 34.1041C15.4506 34.1041 15.0081 33.913 14.6879 33.6038C14.3677 33.2946 14.1694 32.8677 14.1694 32.3957C14.1694 31.9237 14.3674 31.4967 14.6879 31.1875C15.0081 30.8784 15.4503 30.6873 15.9392 30.6873ZM23.2211 31.6778C23.0308 31.494 22.768 31.3804 22.4776 31.3804C22.1873 31.3804 21.9244 31.494 21.7341 31.6778C21.5618 31.8442 21.449 32.0682 21.4292 32.3173C21.427 32.3432 21.4261 32.3694 21.4261 32.3957C21.4261 32.676 21.5438 32.9298 21.7341 33.1135C21.9244 33.2973 22.1873 33.4109 22.4776 33.4109C22.768 33.4109 23.0308 33.2973 23.2211 33.1135C23.4114 32.9298 23.5292 32.676 23.5292 32.3957C23.5292 32.3694 23.5282 32.3435 23.5261 32.3179V32.3173C23.5063 32.0679 23.3935 31.8442 23.2211 31.6778ZM29.7596 31.6778C29.5693 31.494 29.3065 31.3804 29.0161 31.3804C28.7258 31.3804 28.4629 31.494 28.2726 31.6778C28.0823 31.8615 27.9646 32.1153 27.9646 32.3957C27.9646 32.676 28.0823 32.9298 28.2726 33.1135C28.4629 33.2973 28.7258 33.4109 29.0161 33.4109C29.3065 33.4109 29.5693 33.2973 29.7596 33.1135C29.9499 32.9298 30.0676 32.676 30.0676 32.3957C30.0676 32.3694 30.0667 32.3435 30.0646 32.3176V32.317C30.0448 32.0676 29.9319 31.8442 29.7596 31.6778ZM36.2981 31.6778C36.1078 31.494 35.8449 31.3804 35.5546 31.3804C35.2643 31.3804 35.0014 31.494 34.8111 31.6778C34.6208 31.8615 34.5031 32.1153 34.5031 32.3957C34.5031 32.676 34.6208 32.9298 34.8111 33.1135C35.0014 33.2973 35.2643 33.4109 35.5546 33.4109C35.8449 33.4109 36.1078 33.2973 36.2981 33.1135C36.4884 32.9298 36.6061 32.676 36.6061 32.3957C36.6061 32.1153 36.4884 31.8615 36.2981 31.6778ZM35.5546 30.6873C36.0432 30.6873 36.4857 30.8786 36.8059 31.1878C37.1261 31.497 37.324 31.9242 37.324 32.3959C37.324 32.8677 37.1261 33.2949 36.8059 33.6041C36.4857 33.9133 36.0432 34.1044 35.5546 34.1044C35.0661 34.1044 34.6235 33.9133 34.3033 33.6041C33.9831 33.2949 33.7849 32.8677 33.7849 32.3959C33.7849 31.9242 33.9828 31.497 34.3033 31.1878C34.6235 30.8786 35.0657 30.6873 35.5546 30.6873ZM23.0452 25.4301C22.8549 25.2464 22.592 25.1327 22.3017 25.1327C22.0113 25.1327 21.7485 25.2464 21.5582 25.4301C21.3679 25.6139 21.2501 25.8677 21.2501 26.148C21.2501 26.4283 21.3679 26.6821 21.5582 26.8659C21.7485 27.0496 22.0113 27.1633 22.3017 27.1633C22.592 27.1633 22.8549 27.0496 23.0452 26.8659C23.2355 26.6821 23.3532 26.4283 23.3532 26.148C23.3532 25.8677 23.2355 25.6139 23.0452 25.4301ZM22.3017 24.4396C22.7902 24.4396 23.2327 24.6307 23.5529 24.9402C23.8732 25.2496 24.0711 25.6766 24.0711 26.1483C24.0711 26.62 23.8729 27.0473 23.5529 27.3564C23.2327 27.6656 22.7902 27.8567 22.3017 27.8567C21.8131 27.8567 21.3706 27.6656 21.0504 27.3564C20.7302 27.0473 20.5323 26.62 20.5323 26.1483C20.5323 25.6766 20.7305 25.2493 21.0504 24.9402C21.3706 24.631 21.8131 24.4396 22.3017 24.4396ZM29.5837 25.4301C29.3934 25.2464 29.1305 25.1327 28.8402 25.1327C28.5498 25.1327 28.2869 25.2464 28.0966 25.4301C27.9064 25.6139 27.7886 25.8677 27.7886 26.148C27.7886 26.4283 27.9064 26.6821 28.0966 26.8659C28.2869 27.0496 28.5498 27.1633 28.8402 27.1633C29.1305 27.1633 29.3934 27.0496 29.5837 26.8659C29.774 26.6821 29.8917 26.4283 29.8917 26.148C29.8917 25.8677 29.774 25.6139 29.5837 25.4301ZM28.8402 24.4396C29.3287 24.4396 29.7712 24.6307 30.0914 24.9402C30.4117 25.2496 30.6096 25.6766 30.6096 26.1483C30.6096 26.62 30.4113 27.0473 30.0914 27.3564C29.7712 27.6656 29.3287 27.8567 28.8402 27.8567C28.3516 27.8567 27.9091 27.6656 27.5889 27.3564C27.2687 27.0473 27.0707 26.62 27.0707 26.1483C27.0707 25.6766 27.2687 25.2493 27.5892 24.9402C27.9094 24.631 28.3513 24.4396 28.8402 24.4396ZM37.6061 13.9109L13.2594 13.9109C13.1682 13.9109 13.085 13.9471 13.0246 14.0057C12.9642 14.064 12.9264 14.1444 12.9264 14.2325C12.9264 14.3205 12.9639 14.4009 13.0246 14.4592C13.085 14.5175 13.1682 14.554 13.2594 14.554L37.6058 14.554C37.697 14.554 37.7803 14.5178 37.8406 14.4592C37.901 14.4009 37.9388 14.3205 37.9388 14.2325C37.9388 14.1444 37.9013 14.064 37.8406 14.0057C37.7799 13.9474 37.6973 13.9109 37.6061 13.9109ZM19.0864 28.9762H13.2594C13.1682 28.9762 13.085 29.0124 13.0246 29.071C12.9642 29.1293 12.9264 29.2097 12.9264 29.2977C12.9264 29.3858 12.9639 29.4662 13.0246 29.5245C13.085 29.5828 13.1682 29.6193 13.2594 29.6193H18.776C18.847 29.3864 18.9525 29.1697 19.0864 28.9762ZM25.1897 30.0333C25.204 30.1228 25.2117 30.215 25.2117 30.3092V31.9446H24.1845C24.1022 31.6542 23.943 31.3948 23.7289 31.1881C23.4087 30.8789 22.9662 30.6875 22.4776 30.6875C21.9891 30.6875 21.5466 30.8789 21.2264 31.1881C21.0123 31.3948 20.8528 31.6542 20.7707 31.9446H19.3914V30.3106C19.3914 30.2158 19.399 30.1234 19.4136 30.0333C19.4152 30.0256 19.4164 30.018 19.4176 30.01C19.4737 29.6905 19.6174 29.4055 19.8202 29.1864C19.9104 29.0887 20.0126 29.0042 20.1239 28.9356C20.1367 28.9291 20.1489 28.9217 20.1608 28.9135C20.3548 28.8025 20.5743 28.7395 20.8061 28.7395H23.7969C24.1787 28.7395 24.5282 28.9105 24.7832 29.1864C24.9857 29.4055 25.1296 29.6902 25.1857 30.0097C25.1867 30.0177 25.1882 30.0253 25.1897 30.0333ZM32.3656 29.6193H37.6058C37.697 29.6193 37.7803 29.5831 37.8406 29.5245C37.901 29.4662 37.9388 29.3858 37.9388 29.2977C37.9388 29.2097 37.9013 29.1293 37.8406 29.071C37.7803 29.0127 37.697 28.9762 37.6058 28.9762H32.0551C32.189 29.1699 32.2945 29.3867 32.3656 29.6193ZM36.9983 28.2828H37.6058C37.8952 28.2828 38.1581 28.3967 38.3484 28.5805C38.5387 28.7642 38.6567 29.018 38.6567 29.2974C38.6567 29.5769 38.5387 29.8307 38.3484 30.0144C38.1581 30.1982 37.8952 30.3121 37.6058 30.3121H32.468V32.2905C32.468 32.4819 32.3073 32.6371 32.1091 32.6371H30.7679C30.713 33.0122 30.5318 33.3482 30.2671 33.6035C29.9469 33.9127 29.5044 34.1038 29.0158 34.1038C28.5273 34.1038 28.0848 33.9127 27.7645 33.6035C27.5001 33.3482 27.3187 33.0122 27.2638 32.6371H24.2291C24.1742 33.0122 23.993 33.3482 23.7283 33.6035C23.4081 33.9127 22.9656 34.1038 22.477 34.1038C21.9885 34.1038 21.546 33.9127 21.2257 33.6035C20.961 33.3479 20.7799 33.0122 20.725 32.6371H19.0315C18.8333 32.6371 18.6726 32.4819 18.6726 32.2905V30.3121H13.2594C12.97 30.3121 12.7071 30.1982 12.5168 30.0144C12.3265 29.8307 12.2085 29.5769 12.2085 29.2974C12.2085 29.018 12.3265 28.7642 12.5168 28.5805C12.7071 28.3967 12.97 28.2828 13.2594 28.2828H13.8669V15.2477H13.2594C12.97 15.2477 12.7071 15.1338 12.5168 14.95C12.3265 14.7663 12.2085 14.5125 12.2085 14.2331C12.2085 13.9536 12.3265 13.6998 12.5168 13.5161C12.7071 13.3323 12.97 13.2184 13.2594 13.2184L37.6058 13.2184C37.8952 13.2184 38.1581 13.3323 38.3484 13.5161C38.5387 13.6998 38.6567 13.9536 38.6567 14.2331C38.6567 14.5125 38.5387 14.7663 38.3484 14.95C38.1581 15.1338 37.8952 15.2477 37.6058 15.2477H36.9983V28.2828ZM31.282 28.2828C30.9966 28.1311 30.6751 28.0457 30.3354 28.0457H27.3443C26.7508 28.0457 26.2132 28.306 25.8253 28.7256C25.731 28.8275 25.6456 28.9388 25.5706 29.0581C25.4956 28.9388 25.4102 28.8275 25.316 28.7256C24.928 28.3063 24.3904 28.0457 23.7969 28.0457H20.8061C20.4664 28.0457 20.1449 28.1311 19.8595 28.2828H14.5848V15.2477L36.2807 15.2477V28.2831H31.2823L31.282 28.2828ZM31.0176 28.9353C31.1289 29.0039 31.2311 29.0884 31.3214 29.1859C31.5242 29.4049 31.6678 29.6899 31.7239 30.0094C31.7248 30.0174 31.7264 30.025 31.7279 30.0327C31.7425 30.1228 31.7501 30.2152 31.7501 30.3101V31.944H30.723C30.6407 31.6536 30.4815 31.3942 30.2674 31.1875C29.9472 30.8784 29.5047 30.6873 29.0161 30.6873C28.5276 30.6873 28.0851 30.8784 27.7648 31.1875C27.5508 31.3942 27.3913 31.6536 27.3092 31.944H25.9299V30.3086C25.9299 30.2144 25.9375 30.1222 25.9518 30.0324C25.9533 30.0247 25.9546 30.0171 25.9558 30.0091C26.0119 29.6897 26.1555 29.4046 26.3583 29.1856C26.6133 28.91 26.9628 28.7386 27.3446 28.7386H30.3357C30.5675 28.7386 30.7871 28.8016 30.981 28.9126C30.9929 28.9205 31.0054 28.9279 31.0182 28.9347L31.0176 28.9353ZM28.6706 19.6722C28.6916 19.6633 28.7139 19.6565 28.7368 19.6518L30.0692 19.2396L25.4325 17.8045L20.7957 19.2396L25.4325 20.6748L28.6709 19.6724L28.6706 19.6722ZM22.2199 21.8794C22.6493 21.9765 23.1059 22.0543 23.5841 22.1102C24.1434 22.1759 24.7304 22.2106 25.3367 22.2106C25.943 22.2106 26.5303 22.1759 27.0893 22.1102C27.5675 22.054 28.0241 21.9762 28.4535 21.8794V20.4648L25.5413 21.3661C25.4669 21.3891 25.3907 21.3876 25.3218 21.3661L22.2196 20.4059L22.2199 21.8794ZM28.874 22.4912C29.0433 22.4632 29.172 22.321 29.172 22.1497V20.2428L30.0109 19.9831V20.6792C30.0109 20.8706 30.1716 21.0257 30.3699 21.0257C30.5681 21.0257 30.7288 20.8706 30.7288 20.6792V19.7611L31.3479 19.5694C31.4552 19.537 31.5449 19.4563 31.5821 19.3453C31.6425 19.1636 31.5388 18.969 31.3506 18.9107L25.5422 17.1131C25.4733 17.0916 25.3971 17.0898 25.3227 17.1131L19.5161 18.9101C19.4088 18.9425 19.3191 19.0232 19.2819 19.1345C19.2215 19.3162 19.3252 19.5108 19.5134 19.5691L21.5017 20.1845V22.1505C21.5017 22.3219 21.6304 22.4641 21.7997 22.4921C22.3355 22.6255 22.9058 22.7294 23.4999 22.7992C24.0894 22.8684 24.7048 22.9052 25.3367 22.9052C25.9686 22.9052 26.5843 22.8684 27.1735 22.7992C27.7676 22.7294 28.3376 22.6258 28.8737 22.4921L28.874 22.4912Z" fill="white"/>
</svg>
