<svg width="50" height="51" viewBox="0 0 50 51" fill="none" xmlns="http://www.w3.org/2000/svg">
<rect y="0.734863" width="50" height="50" rx="25" fill="#003366"/>
<path d="M25 21.5516C25.75 18.591 28.5827 17.0793 34.75 17.0516C34.8486 17.0513 34.9463 17.0704 35.0375 17.108C35.1286 17.1455 35.2114 17.2008 35.2812 17.2705C35.3509 17.3402 35.4061 17.423 35.4437 17.5142C35.4812 17.6054 35.5004 17.703 35.5 17.8016V31.3016C35.5 31.5006 35.421 31.6913 35.2803 31.832C35.1397 31.9726 34.9489 32.0516 34.75 32.0516C28.75 32.0516 26.432 33.2615 25 35.0516M25 21.5516C24.25 18.591 21.4173 17.0793 15.25 17.0516C15.1514 17.0513 15.0537 17.0704 14.9626 17.108C14.8714 17.1455 14.7886 17.2008 14.7188 17.2705C14.6491 17.3402 14.5939 17.423 14.5563 17.5142C14.5188 17.6054 14.4996 17.703 14.5 17.8016V31.2112C14.5 31.6743 14.7869 32.0516 15.25 32.0516C21.25 32.0516 23.5764 33.2704 25 35.0516M25 21.5516V35.0516" stroke="white" stroke-width="1.4" stroke-linecap="round" stroke-linejoin="round"/>
</svg>
