<svg width="51" height="51" viewBox="0 0 51 51" fill="none" xmlns="http://www.w3.org/2000/svg">
<rect x="0.333496" y="0.734863" width="50" height="50" rx="25" fill="#003366"/>
<g clip-path="url(#clip0_190_568)">
<path d="M33.3978 33.057C33.3978 32.1463 34.0704 31.6186 34.1451 31.5625C34.1544 31.5532 34.1638 31.5439 34.1731 31.5345C34.1871 31.5205 34.2011 31.5065 34.2151 31.4925C34.2385 31.4645 34.2618 31.4318 34.2758 31.3991C34.2852 31.3851 34.2945 31.3664 34.2992 31.3524C34.3179 31.301 34.3319 31.2496 34.3319 31.1983C34.3319 31.1936 34.3319 31.1936 34.3319 31.1936V15.3101C34.3319 15.0532 34.1217 14.8431 33.8649 14.8431L21.5121 14.8431H19.714C17.986 14.8431 16.585 16.2442 16.585 17.9721V33.057C16.585 34.346 17.6311 35.3921 18.9201 35.3921H21.2552V36.7932C21.2552 36.98 21.3673 37.1528 21.5448 37.2229C21.7176 37.2929 21.9184 37.2556 22.0538 37.1201L23.1233 36.0507L24.1928 37.1201C24.2815 37.2135 24.4029 37.2602 24.5244 37.2602C24.5851 37.2602 24.6458 37.2509 24.7018 37.2229C24.8793 37.1528 24.9914 36.98 24.9914 36.7932V35.3921H33.8649C34.0657 35.3921 34.2432 35.2614 34.3085 35.0746C34.3739 34.8831 34.3085 34.6729 34.1451 34.5515C33.4165 34.0051 33.3978 33.1504 33.3978 33.057ZM24.5244 32.59H21.7222H17.6031C17.6731 32.3985 17.7759 32.2164 17.9253 32.0669C18.1962 31.8007 18.5465 31.656 18.9201 31.656H21.5121H32.8514C32.702 31.9128 32.5712 32.2257 32.5105 32.59H24.5244ZM33.3978 30.7219H21.5121H20.3212V15.7771H21.5121H33.3978V30.7219ZM19.3871 15.8098V30.7219H18.9201C18.411 30.7219 17.9253 30.8947 17.519 31.2029V17.9721C17.519 16.8746 18.3316 15.9686 19.3871 15.8098ZM18.9201 34.4581C18.313 34.4581 17.7992 34.0658 17.6031 33.5241H21.2552V34.4581H18.9201ZM24.0574 35.6677L23.4549 35.0652C23.3615 34.9718 23.2447 34.9251 23.1233 34.9251C23.0019 34.9251 22.8851 34.9718 22.7917 35.0606L22.1893 35.6677V33.5241H24.0574V35.6677ZM24.9914 34.4581V33.5241H32.5105C32.5572 33.7856 32.6506 34.1172 32.8421 34.4581H24.9914Z" fill="white"/>
<path d="M26.8546 27.9198C29.4279 27.9198 31.5248 25.8228 31.5248 23.2495C31.5248 21.1152 30.0864 19.3172 28.1296 18.7614C28.1249 18.7614 28.1202 18.7568 28.1109 18.7568C27.7093 18.6447 27.2889 18.5793 26.8499 18.5793C24.2766 18.5793 22.1797 20.6762 22.1797 23.2495C22.1797 25.8228 24.2813 27.9198 26.8546 27.9198ZM26.8546 19.5133C27.1488 19.5133 27.429 19.5507 27.7046 19.6161C27.756 19.7328 27.7887 19.8543 27.7887 19.9804C27.7887 20.4941 27.3683 20.9144 26.8546 20.9144C26.5977 20.9144 26.3876 21.1246 26.3876 21.3814C26.3876 21.6383 26.5977 21.8485 26.8546 21.8485C27.8727 21.8485 28.6993 21.0312 28.718 20.0177C29.8342 20.6622 30.5908 21.8718 30.5908 23.2495C30.5908 25.3091 28.9142 26.9857 26.8546 26.9857C24.795 26.9857 23.1184 25.3091 23.1184 23.2495C23.1184 21.19 24.795 19.5133 26.8546 19.5133Z" fill="white"/>
<path d="M28.2561 23.2495H28.7231C28.98 23.2495 29.1901 23.0394 29.1901 22.7825C29.1901 22.5257 28.98 22.3155 28.7231 22.3155H28.2561C27.9992 22.3155 27.7891 22.5257 27.7891 22.7825C27.7891 23.0394 27.9992 23.2495 28.2561 23.2495Z" fill="white"/>
<path d="M24.9866 23.2495H25.4536C25.7104 23.2495 25.9206 23.0394 25.9206 22.7825C25.9206 22.5257 25.7104 22.3155 25.4536 22.3155H24.9866C24.7297 22.3155 24.5195 22.5257 24.5195 22.7825C24.5195 23.0394 24.7297 23.2495 24.9866 23.2495Z" fill="white"/>
<path d="M25.4536 24.6506C25.4536 25.4212 26.0841 26.0517 26.8547 26.0517C27.6253 26.0517 28.2558 25.4212 28.2558 24.6506C28.2558 24.3938 28.0456 24.1836 27.7887 24.1836C27.5319 24.1836 27.3217 24.3938 27.3217 24.6506C27.3217 24.9075 27.1116 25.1176 26.8547 25.1176C26.5978 25.1176 26.3877 24.9075 26.3877 24.6506C26.3877 24.3938 26.1775 24.1836 25.9206 24.1836C25.6638 24.1836 25.4536 24.3938 25.4536 24.6506Z" fill="white"/>
</g>
<defs>
<clipPath id="clip0_190_568">
<rect width="24" height="24" fill="white" transform="translate(13.3335 14.0516)"/>
</clipPath>
</defs>
</svg>
