<svg width="51" height="51" viewBox="0 0 51 51" fill="none" xmlns="http://www.w3.org/2000/svg">
<rect x="0.333496" y="0.734863" width="50" height="50" rx="25" fill="#003366"/>
<path d="M25.9368 12.3376C22.0889 12.0643 18.4207 13.3548 15.6109 15.9721C12.8395 18.5538 11.25 22.2055 11.25 25.9917C11.25 29.2168 12.4013 32.3834 14.4914 34.8416C14.864 35.2798 15.2465 35.7123 15.6714 36.1009C15.9919 36.3942 16.5234 36.9471 16.9934 36.9471C17.2722 36.9471 17.4979 36.7213 17.4979 36.4426V28.4263C17.4979 27.3972 18.3351 26.5598 19.3641 26.5598H20.8571C21.7211 26.5598 22.4545 27.1527 22.6618 27.9683C22.1361 28.4859 21.8089 29.2047 21.8089 29.9991C21.8089 30.8248 22.1639 31.5675 22.7269 32.0886V32.1177C22.0789 32.559 21.6872 33.2859 21.6872 34.0822V38.8335C21.6872 39.1123 21.913 39.3381 22.1918 39.3381C22.4705 39.3381 22.6963 39.1123 22.6963 38.8335V38.7966V34.0828C22.6963 33.5616 22.988 33.0913 23.4596 32.8547C23.5831 32.792 23.7132 32.7536 23.8464 32.7312C24.1048 32.8083 24.3778 32.8513 24.6611 32.8513C24.945 32.8513 25.2186 32.8083 25.4774 32.7309C26.1341 32.8398 26.6271 33.4161 26.6271 34.0831V38.5112V39.036C26.6271 39.3148 26.8529 39.5405 27.1316 39.5405C27.4104 39.5405 27.6362 39.3148 27.6362 39.036V34.0828C27.6362 33.2729 27.217 32.5393 26.5754 32.1068C27.1495 31.5847 27.5127 30.8348 27.5127 29.9994C27.5127 28.9256 26.9156 27.9892 26.0364 27.5029V26.2069C26.0364 24.9406 27.0666 23.9101 28.3329 23.9101H30.0916C31.3561 23.9101 32.3848 24.9388 32.3848 26.2036V35.1648C32.3848 35.6215 32.6457 36.0192 33.0654 36.2029C33.4831 36.3857 33.9498 36.3076 34.2857 35.9974C37.3168 33.1673 38.8885 29.1629 38.5976 25.0117C38.1288 18.2656 32.6859 12.817 25.9368 12.3376ZM20.1104 25.397C18.7549 25.397 17.6517 24.2938 17.6517 22.9383C17.6517 21.5827 18.7549 20.4798 20.1104 20.4798C21.466 20.4798 22.5689 21.5827 22.5689 22.9383C22.5692 24.2941 21.4663 25.397 20.1104 25.397ZM26.5033 29.9994C26.5033 31.0154 25.6765 31.8423 24.6605 31.8423C23.6442 31.8423 22.8177 31.0154 22.8177 29.9994C22.8177 28.9831 23.6445 28.1566 24.6605 28.1566C25.6765 28.1566 26.5033 28.9834 26.5033 29.9994ZM29.2103 22.7788C27.5614 22.7788 26.2198 21.4371 26.2198 19.7883C26.2198 18.1394 27.5614 16.7978 29.2103 16.7978C30.8591 16.7978 32.2008 18.1394 32.2008 19.7883C32.2008 21.4371 30.8594 22.7788 29.2103 22.7788ZM33.5987 35.2586C33.5609 35.2934 33.5179 35.2998 33.4692 35.2789C33.4344 35.2638 33.3929 35.2317 33.3929 35.1651V26.2039C33.3929 24.8323 32.5521 23.654 31.3591 23.1559C32.4698 22.4446 33.2095 21.2026 33.2095 19.7883C33.2095 17.5831 31.4154 15.789 29.2103 15.789C27.0051 15.789 25.211 17.5828 25.211 19.7883C25.211 21.2026 25.951 22.4449 27.062 23.1562C25.8681 23.6549 25.0267 24.8344 25.0267 26.2072V27.1742C24.9066 27.1587 24.7849 27.1479 24.6605 27.1479C24.2607 27.1479 23.8803 27.2314 23.5346 27.3803C23.2604 26.6796 22.7226 26.1197 22.0486 25.8122C22.9705 25.1885 23.5779 24.1328 23.5779 22.9383C23.5779 21.0261 22.0226 19.4708 20.1104 19.4708C18.1986 19.4708 16.643 21.0261 16.643 22.9383C16.643 24.1331 17.2507 25.1891 18.1732 25.8129C17.1814 26.2668 16.4892 27.2662 16.4892 28.4266V35.446C13.792 33.0387 12.259 29.6332 12.259 25.9917C12.259 22.4846 13.7314 19.1016 16.2988 16.7103C18.9016 14.2858 22.3022 13.0912 25.8654 13.3439C32.1163 13.7879 37.1573 18.8343 37.591 25.0823C37.8603 28.929 36.4046 32.6389 33.5987 35.2586Z" fill="white"/>
</svg>
