<svg width="51" height="51" viewBox="0 0 51 51" fill="none" xmlns="http://www.w3.org/2000/svg">
<rect x="0.666504" y="0.734863" width="50" height="50" rx="25" fill="#003366"/>
<path d="M28.6665 22.0516V20.0516C28.6665 19.5212 28.4558 19.0125 28.0807 18.6374C27.7056 18.2623 27.1969 18.0516 26.6665 18.0516H24.6665C24.1361 18.0516 23.6274 18.2623 23.2523 18.6374C22.8772 19.0125 22.6665 19.5212 22.6665 20.0516V22.0516M28.6665 22.0516H32.6665C33.1969 22.0516 33.7056 22.2623 34.0807 22.6374C34.4558 23.0125 34.6665 23.5212 34.6665 24.0516V32.0516C34.6665 32.5821 34.4558 33.0908 34.0807 33.4658C33.7056 33.8409 33.1969 34.0516 32.6665 34.0516H18.6665C18.1361 34.0516 17.6274 33.8409 17.2523 33.4658C16.8772 33.0908 16.6665 32.5821 16.6665 32.0516V24.0516C16.6665 23.5212 16.8772 23.0125 17.2523 22.6374C17.6274 22.2623 18.1361 22.0516 18.6665 22.0516H22.6665M28.6665 22.0516H22.6665" stroke="white" stroke-width="1.3" stroke-linecap="round" stroke-linejoin="round"/>
</svg>
