<svg width="50" height="51" viewBox="0 0 50 51" fill="none" xmlns="http://www.w3.org/2000/svg">
<rect y="0.734863" width="50" height="50" rx="25" fill="#003366"/>
<path d="M18.3332 32.7184C17.8748 32.7184 17.4826 32.5554 17.1565 32.2293C16.8298 31.9026 16.6665 31.5101 16.6665 31.0518V21.0518C16.6665 20.5934 16.8298 20.2012 17.1565 19.8751C17.4826 19.5484 17.8748 19.3851 18.3332 19.3851H31.6665C32.1248 19.3851 32.5173 19.5484 32.844 19.8751C33.1701 20.2012 33.3332 20.5934 33.3332 21.0518V31.0518C33.3332 31.5101 33.1701 31.9026 32.844 32.2293C32.5173 32.5554 32.1248 32.7184 31.6665 32.7184H18.3332ZM31.6665 22.7184L25.4373 26.6143C25.3679 26.6559 25.2948 26.687 25.2182 26.7076C25.1421 26.7287 25.0693 26.7393 24.9998 26.7393C24.9304 26.7393 24.8576 26.7287 24.7815 26.7076C24.7048 26.687 24.6318 26.6559 24.5623 26.6143L18.3332 22.7184V31.0518H31.6665V22.7184ZM24.9998 25.2184L31.6665 21.0518H18.3332L24.9998 25.2184ZM18.3332 22.7184V22.9268V21.6976V21.7184V21.0518V21.7184V21.7076V22.9268V22.7184V31.0518V22.7184Z" fill="white"/>
</svg>
