<svg width="50" height="51" viewBox="0 0 50 51" fill="none" xmlns="http://www.w3.org/2000/svg">
<rect y="0.734863" width="50" height="50" rx="25" fill="#003366"/>
<path d="M32.0667 34.0518C30.1556 34.0518 28.2927 33.6257 26.4782 32.7735C24.6637 31.9214 23.0563 30.7955 21.656 29.3958C20.2557 27.9961 19.1298 26.3886 18.2782 24.5735C17.4267 22.7584 17.0006 20.8956 17 18.9851C17 18.7184 17.0889 18.4962 17.2667 18.3184C17.4444 18.1406 17.6667 18.0518 17.9333 18.0518H21.5333C21.7407 18.0518 21.9259 18.1184 22.0889 18.2518C22.2519 18.3851 22.3481 18.5555 22.3778 18.7629L22.9556 21.874C22.9852 22.0814 22.9813 22.2704 22.944 22.4411C22.9067 22.6118 22.8216 22.7635 22.6889 22.8962L20.5333 25.074C21.1556 26.1406 21.9372 27.1406 22.8782 28.074C23.8193 29.0073 24.8524 29.8147 25.9778 30.4962L28.0667 28.4073C28.2 28.274 28.3742 28.1738 28.5893 28.1069C28.8044 28.0399 29.0154 28.0215 29.2222 28.0518L32.2889 28.674C32.4963 28.7184 32.6667 28.8186 32.8 28.9744C32.9333 29.1303 33 29.3116 33 29.5184V33.1184C33 33.3851 32.9111 33.6073 32.7333 33.7851C32.5556 33.9629 32.3333 34.0518 32.0667 34.0518ZM19.6889 23.3851L21.1556 21.9184L20.7778 19.8295H18.8C18.8741 20.4369 18.9778 21.0369 19.1111 21.6295C19.2444 22.2221 19.437 22.8073 19.6889 23.3851ZM27.6444 31.3406C28.2222 31.5925 28.8113 31.7925 29.4116 31.9406C30.0119 32.0888 30.6154 32.1851 31.2222 32.2295V30.274L29.1333 29.8518L27.6444 31.3406Z" fill="white"/>
</svg>
